<mxfile host="app.diagrams.net" agent="Mozilla/5.0 (X11; Linux x86_64) AppleWebKit/537.36 (KHTML, like Gecko) Chrome/131.0.0.0 Safari/537.36 Edg/131.0.2903.125" version="26.0.6">
  <diagram name="第 1 页" id="52P03i1eQPjzCmc6YSbs">
    <mxGraphModel dx="634" dy="417" grid="0" gridSize="10" guides="1" tooltips="1" connect="1" arrows="1" fold="1" page="1" pageScale="1" pageWidth="827" pageHeight="1169" math="0" shadow="0">
      <root>
        <mxCell id="0" />
        <mxCell id="1" parent="0" />
        <mxCell id="K3VsKg-aY73Qc9NV4_kC-17" value="" style="rounded=1;whiteSpace=wrap;html=1;opacity=80;glass=0;arcSize=3;" vertex="1" parent="1">
          <mxGeometry x="20" y="170" width="440" height="180" as="geometry" />
        </mxCell>
        <mxCell id="K3VsKg-aY73Qc9NV4_kC-1" value="采集" style="rounded=1;whiteSpace=wrap;html=1;" vertex="1" parent="1">
          <mxGeometry x="60" y="180" width="60" height="40" as="geometry" />
        </mxCell>
        <mxCell id="K3VsKg-aY73Qc9NV4_kC-2" value="预处理" style="rounded=1;whiteSpace=wrap;html=1;fillColor=#d5e8d4;strokeColor=#82b366;" vertex="1" parent="1">
          <mxGeometry x="160" y="180" width="60" height="40" as="geometry" />
        </mxCell>
        <mxCell id="K3VsKg-aY73Qc9NV4_kC-3" value="光谱特征&lt;div&gt;提取&lt;/div&gt;" style="rounded=1;whiteSpace=wrap;html=1;fillColor=#e1d5e7;strokeColor=#9673a6;" vertex="1" parent="1">
          <mxGeometry x="260" y="180" width="60" height="40" as="geometry" />
        </mxCell>
        <mxCell id="K3VsKg-aY73Qc9NV4_kC-4" value="分类判定" style="rounded=1;whiteSpace=wrap;html=1;" vertex="1" parent="1">
          <mxGeometry x="360" y="180" width="60" height="40" as="geometry" />
        </mxCell>
        <mxCell id="K3VsKg-aY73Qc9NV4_kC-5" value="黑白矫正" style="rounded=0;whiteSpace=wrap;html=1;fillColor=#fff2cc;strokeColor=#d6b656;" vertex="1" parent="1">
          <mxGeometry x="135" y="250" width="20" height="90" as="geometry" />
        </mxCell>
        <mxCell id="K3VsKg-aY73Qc9NV4_kC-6" value="光谱平滑" style="rounded=0;whiteSpace=wrap;html=1;fillColor=#fff2cc;strokeColor=#d6b656;" vertex="1" parent="1">
          <mxGeometry x="165" y="250" width="20" height="90" as="geometry" />
        </mxCell>
        <mxCell id="K3VsKg-aY73Qc9NV4_kC-7" value="选择敏感波段" style="rounded=0;whiteSpace=wrap;html=1;fillColor=#fff2cc;strokeColor=#d6b656;" vertex="1" parent="1">
          <mxGeometry x="195" y="250" width="20" height="90" as="geometry" />
        </mxCell>
        <mxCell id="K3VsKg-aY73Qc9NV4_kC-8" value="分离虫体区域" style="rounded=0;whiteSpace=wrap;html=1;fillColor=#fff2cc;strokeColor=#d6b656;" vertex="1" parent="1">
          <mxGeometry x="225" y="250" width="20" height="90" as="geometry" />
        </mxCell>
        <mxCell id="K3VsKg-aY73Qc9NV4_kC-9" value="" style="endArrow=classic;html=1;rounded=0;exitX=1;exitY=0.5;exitDx=0;exitDy=0;entryX=0;entryY=0.5;entryDx=0;entryDy=0;" edge="1" parent="1" source="K3VsKg-aY73Qc9NV4_kC-1" target="K3VsKg-aY73Qc9NV4_kC-2">
          <mxGeometry width="50" height="50" relative="1" as="geometry">
            <mxPoint x="100" y="120" as="sourcePoint" />
            <mxPoint x="150" y="70" as="targetPoint" />
          </mxGeometry>
        </mxCell>
        <mxCell id="K3VsKg-aY73Qc9NV4_kC-10" value="" style="endArrow=classic;html=1;rounded=0;exitX=1;exitY=0.5;exitDx=0;exitDy=0;entryX=0;entryY=0.5;entryDx=0;entryDy=0;" edge="1" parent="1" source="K3VsKg-aY73Qc9NV4_kC-2" target="K3VsKg-aY73Qc9NV4_kC-3">
          <mxGeometry width="50" height="50" relative="1" as="geometry">
            <mxPoint x="260" y="100" as="sourcePoint" />
            <mxPoint x="310" y="50" as="targetPoint" />
          </mxGeometry>
        </mxCell>
        <mxCell id="K3VsKg-aY73Qc9NV4_kC-11" value="" style="endArrow=classic;html=1;rounded=0;exitX=1;exitY=0.5;exitDx=0;exitDy=0;entryX=0;entryY=0.5;entryDx=0;entryDy=0;" edge="1" parent="1" source="K3VsKg-aY73Qc9NV4_kC-3" target="K3VsKg-aY73Qc9NV4_kC-4">
          <mxGeometry width="50" height="50" relative="1" as="geometry">
            <mxPoint x="380" y="70" as="sourcePoint" />
            <mxPoint x="430" y="20" as="targetPoint" />
          </mxGeometry>
        </mxCell>
        <mxCell id="K3VsKg-aY73Qc9NV4_kC-12" value="" style="endArrow=classic;html=1;rounded=0;exitX=0.5;exitY=1;exitDx=0;exitDy=0;entryX=0.5;entryY=0;entryDx=0;entryDy=0;edgeStyle=orthogonalEdgeStyle;" edge="1" parent="1" source="K3VsKg-aY73Qc9NV4_kC-2" target="K3VsKg-aY73Qc9NV4_kC-5">
          <mxGeometry width="50" height="50" relative="1" as="geometry">
            <mxPoint x="450" y="70" as="sourcePoint" />
            <mxPoint x="500" y="20" as="targetPoint" />
          </mxGeometry>
        </mxCell>
        <mxCell id="K3VsKg-aY73Qc9NV4_kC-14" value="" style="endArrow=classic;html=1;rounded=0;exitX=0.5;exitY=1;exitDx=0;exitDy=0;entryX=0.5;entryY=0;entryDx=0;entryDy=0;edgeStyle=orthogonalEdgeStyle;" edge="1" parent="1" source="K3VsKg-aY73Qc9NV4_kC-2" target="K3VsKg-aY73Qc9NV4_kC-7">
          <mxGeometry width="50" height="50" relative="1" as="geometry">
            <mxPoint x="330" y="80" as="sourcePoint" />
            <mxPoint x="380" y="30" as="targetPoint" />
          </mxGeometry>
        </mxCell>
        <mxCell id="K3VsKg-aY73Qc9NV4_kC-15" value="" style="endArrow=classic;html=1;rounded=0;exitX=0.5;exitY=1;exitDx=0;exitDy=0;entryX=0.5;entryY=0;entryDx=0;entryDy=0;edgeStyle=orthogonalEdgeStyle;" edge="1" parent="1" source="K3VsKg-aY73Qc9NV4_kC-2" target="K3VsKg-aY73Qc9NV4_kC-6">
          <mxGeometry width="50" height="50" relative="1" as="geometry">
            <mxPoint x="250" y="100" as="sourcePoint" />
            <mxPoint x="300" y="50" as="targetPoint" />
          </mxGeometry>
        </mxCell>
        <mxCell id="K3VsKg-aY73Qc9NV4_kC-16" value="" style="endArrow=classic;html=1;rounded=0;entryX=0.5;entryY=0;entryDx=0;entryDy=0;exitX=0.5;exitY=1;exitDx=0;exitDy=0;edgeStyle=orthogonalEdgeStyle;" edge="1" parent="1" source="K3VsKg-aY73Qc9NV4_kC-2" target="K3VsKg-aY73Qc9NV4_kC-8">
          <mxGeometry width="50" height="50" relative="1" as="geometry">
            <mxPoint x="190" y="220" as="sourcePoint" />
            <mxPoint x="290" y="10" as="targetPoint" />
          </mxGeometry>
        </mxCell>
      </root>
    </mxGraphModel>
  </diagram>
</mxfile>
